# xmcd CD database file
# Generated: mer jan 7 18:56:53 2004 by KSCD
# 
# Track frame offsets:
#       150
#       7748
#       22518
#       39353
#       45730
#       63190
#       80440
#       98140
#       110410
#       119845
#       132430
#       143348
#       147645
#       179178
#       188428
#       201535
#       213370
#       226223
#       236485
#       250520
#       253373
#       266870
#       297555
#       311850
#       340973
#
# Disc length: 4556 seconds
#
# Revision: 3
# Processed by: cddbd v1.4PL0 Copyright (c) Steve Scherf et al.
# Submitted via: Kscd 1.3.3
#
DISCID=7411ca19
DTITLE=Nitty Gritty Dirt Band - Stars and Stripes Forever
DYEAR=1900
DGENRE=
TTITLE0=Jambalaya (On the Bayou)
TTITLE1=Dirt Band Interview
TTITLE2=Cosmic Cowboy (Part 1)
TTITLE3=Aluminum Record Award
TTITLE4=Fish Song
TTITLE5=Mr. Bojangles
TTITLE6=Vassar Clements Interview
TTITLE7=Listen to the Mockingbird
TTITLE8=The Sheik of Araby
TTITLE9=Resign Yourself to Me
TTITLE10=Dixie Hoedown
TTITLE11=Cripple Creek
TTITLE12=Mountain Whippoorwill (or, How Hillbilly Jim Won the Great Fidle's pri
TTITLE13=Honky Tonkin'
TTITLE14=House at Pooh Corner
TTITLE15=Buy for me the Rain
TTITLE16=Oh Boy
TTITLE17=Teardrops in my Eyes
TTITLE18=Glocoat Blues
TTITLE19=Stars and Stripes Forever
TTITLE20=Battle of New Orleans
TTITLE21=It Came from the 50's (Blast from the Past)
TTITLE22=My True Story
TTITLE23=Diggy Liggy Lo
TTITLE24=data
EXTD=
EXTT0=
EXTT1=
EXTT2=
EXTT3=
EXTT4=
EXTT5=
EXTT6=
EXTT7=
EXTT8=
EXTT9=
EXTT10=
EXTT11=
EXTT12=
EXTT13=
EXTT14=
EXTT15=
EXTT16=
EXTT17=
EXTT18=
EXTT19=
EXTT20=
EXTT21=
EXTT22=
EXTT23=
EXTT24=
PLAYORDER=
